<?xml version="1.0" encoding="UTF-8"?>
<svg width="700pt" height="700pt" version="1.1" viewBox="0 0 700 700" xmlns="http://www.w3.org/2000/svg" xmlns:xlink="http://www.w3.org/1999/xlink">
 <defs>
  <symbol id="v" overflow="visible">
   <path d="m15.625-0.9375c-0.80469 0.41797-1.6406 0.73047-2.5156 0.9375-0.875 0.21875-1.7891 0.32812-2.7344 0.32812-2.8359 0-5.0781-0.78906-6.7344-2.375-1.6562-1.582-2.4844-3.7266-2.4844-6.4375 0-2.7188 0.82812-4.8672 2.4844-6.4531 1.6562-1.582 3.8984-2.375 6.7344-2.375 0.94531 0 1.8594 0.10938 2.7344 0.32812 0.875 0.21094 1.7109 0.52344 2.5156 0.9375v3.5156c-0.8125-0.55078-1.6172-0.95703-2.4062-1.2188-0.78125-0.25781-1.6094-0.39062-2.4844-0.39062-1.5625 0-2.793 0.50781-3.6875 1.5156-0.89844 1-1.3438 2.3828-1.3438 4.1406 0 1.75 0.44531 3.1328 1.3438 4.1406 0.89453 1 2.125 1.5 3.6875 1.5 0.875 0 1.7031-0.12891 2.4844-0.39062 0.78906-0.25781 1.5938-0.66406 2.4062-1.2188z"/>
  </symbol>
  <symbol id="b" overflow="visible">
   <path d="m11.438-9.2812c-0.35547-0.16406-0.71094-0.28516-1.0625-0.35938-0.35547-0.082031-0.71094-0.125-1.0625-0.125-1.0547 0-1.8672 0.33984-2.4375 1.0156-0.5625 0.66797-0.84375 1.625-0.84375 2.875v5.875h-4.0781v-12.75h4.0781v2.0938c0.53125-0.84375 1.1328-1.4531 1.8125-1.8281 0.67578-0.38281 1.4883-0.57812 2.4375-0.57812 0.13281 0 0.28125 0.007812 0.4375 0.015625 0.16406 0.011719 0.39844 0.039063 0.70312 0.078125z"/>
  </symbol>
  <symbol id="a" overflow="visible">
   <path d="m14.688-6.4062v1.1562h-9.5312c0.10156 0.96094 0.44531 1.6797 1.0312 2.1562 0.59375 0.48047 1.4258 0.71875 2.5 0.71875 0.85156 0 1.7266-0.125 2.625-0.375 0.90625-0.25781 1.832-0.64844 2.7812-1.1719v3.1406c-0.96875 0.36719-1.9375 0.64062-2.9062 0.82812-0.96094 0.1875-1.9219 0.28125-2.8906 0.28125-2.3047 0-4.0938-0.58203-5.375-1.75-1.2812-1.1758-1.9219-2.8281-1.9219-4.9531 0-2.0703 0.625-3.7031 1.875-4.8906 1.2578-1.1953 2.9922-1.7969 5.2031-1.7969 2 0 3.5977 0.60547 4.7969 1.8125 1.207 1.2109 1.8125 2.8242 1.8125 4.8438zm-4.1875-1.3594c0-0.78125-0.23047-1.4062-0.6875-1.875-0.44922-0.47656-1.0391-0.71875-1.7656-0.71875-0.78125 0-1.4219 0.22656-1.9219 0.67188-0.49219 0.44922-0.79688 1.0898-0.92188 1.9219z"/>
  </symbol>
  <symbol id="d" overflow="visible">
   <path d="m7.6719-5.7344c-0.84375 0-1.4844 0.14844-1.9219 0.4375-0.42969 0.28125-0.64062 0.70312-0.64062 1.2656 0 0.52344 0.17188 0.92969 0.51562 1.2188 0.35156 0.29297 0.83594 0.4375 1.4531 0.4375 0.75781 0 1.3984-0.27344 1.9219-0.82812 0.53125-0.55078 0.79688-1.2422 0.79688-2.0781v-0.45312zm6.2344-1.5469v7.2812h-4.1094v-1.8906c-0.55469 0.77344-1.1719 1.3359-1.8594 1.6875-0.67969 0.35156-1.5078 0.53125-2.4844 0.53125-1.3242 0-2.3984-0.38281-3.2188-1.1562-0.82422-0.76953-1.2344-1.7695-1.2344-3 0-1.5 0.51562-2.5977 1.5469-3.2969 1.0312-0.69531 2.6445-1.0469 4.8438-1.0469h2.4062v-0.3125c0-0.64453-0.25781-1.1172-0.76562-1.4219-0.51172-0.30078-1.3047-0.45312-2.375-0.45312-0.875 0-1.6875 0.089844-2.4375 0.26562-0.75 0.17969-1.4492 0.4375-2.0938 0.78125v-3.1094c0.86328-0.20703 1.7383-0.36328 2.625-0.46875 0.88281-0.11328 1.7656-0.17188 2.6406-0.17188 2.3008 0 3.9609 0.45312 4.9844 1.3594 1.0195 0.90625 1.5312 2.3828 1.5312 4.4219z"/>
  </symbol>
  <symbol id="c" overflow="visible">
   <path d="m6.4062-16.375v3.625h4.2031v2.9062h-4.2031v5.4062c0 0.59375 0.11719 0.99609 0.35938 1.2031 0.23828 0.21094 0.70703 0.3125 1.4062 0.3125h2.0938v2.9219h-3.5c-1.6172 0-2.7617-0.33203-3.4375-1-0.66797-0.67578-1-1.8203-1-3.4375v-5.4062h-2.0156v-2.9062h2.0156v-3.625z"/>
  </symbol>
  <symbol id="j" overflow="visible">
   <path d="m10.641-10.891v-6.8281h4.0938v17.719h-4.0938v-1.8438c-0.5625 0.75-1.1836 1.3047-1.8594 1.6562-0.67969 0.34375-1.4609 0.51562-2.3438 0.51562-1.5742 0-2.8672-0.625-3.875-1.875-1.0117-1.25-1.5156-2.8594-1.5156-4.8281 0-1.957 0.50391-3.5625 1.5156-4.8125 1.0078-1.25 2.3008-1.875 3.875-1.875 0.875 0 1.6484 0.17969 2.3281 0.53125 0.6875 0.35547 1.3125 0.90234 1.875 1.6406zm-2.6875 8.2656c0.875 0 1.5391-0.31641 2-0.95312 0.45703-0.64453 0.6875-1.5781 0.6875-2.7969 0-1.207-0.23047-2.1289-0.6875-2.7656-0.46094-0.64453-1.125-0.96875-2-0.96875-0.86719 0-1.5273 0.32422-1.9844 0.96875-0.46094 0.63672-0.6875 1.5586-0.6875 2.7656 0 1.2188 0.22656 2.1523 0.6875 2.7969 0.45703 0.63672 1.1172 0.95312 1.9844 0.95312z"/>
  </symbol>
  <symbol id="i" overflow="visible">
   <path d="m8.75-2.625c0.875 0 1.5391-0.31641 2-0.95312 0.45703-0.64453 0.6875-1.5781 0.6875-2.7969 0-1.207-0.23047-2.1289-0.6875-2.7656-0.46094-0.64453-1.125-0.96875-2-0.96875s-1.5469 0.32422-2.0156 0.96875c-0.46875 0.64844-0.70312 1.5703-0.70312 2.7656 0 1.2109 0.23438 2.1367 0.70312 2.7812 0.46875 0.64844 1.1406 0.96875 2.0156 0.96875zm-2.7188-8.2656c0.5625-0.73828 1.1875-1.2852 1.875-1.6406 0.6875-0.35156 1.4727-0.53125 2.3594-0.53125 1.5703 0 2.8633 0.625 3.875 1.875 1.0078 1.25 1.5156 2.8555 1.5156 4.8125 0 1.9688-0.50781 3.5781-1.5156 4.8281-1.0117 1.25-2.3047 1.875-3.875 1.875-0.88672 0-1.6719-0.17969-2.3594-0.53125s-1.3125-0.89844-1.875-1.6406v1.8438h-4.0781v-17.719h4.0781z"/>
  </symbol>
  <symbol id="f" overflow="visible">
   <path d="m0.28125-12.75h4.0781l3.4375 8.6562 2.9062-8.6562h4.0781l-5.3594 13.953c-0.54297 1.4258-1.1719 2.4219-1.8906 2.9844s-1.668 0.84375-2.8438 0.84375h-2.3594v-2.6719h1.2812c0.6875 0 1.1875-0.10938 1.5-0.32812 0.32031-0.21875 0.57031-0.61719 0.75-1.1875l0.10938-0.35938z"/>
  </symbol>
  <symbol id="h" overflow="visible">
   <path d="m2.1406-17h5.5781l3.875 9.0938 3.8906-9.0938h5.5781v17h-4.1406v-12.438l-3.9219 9.1719h-2.7812l-3.9219-9.1719v12.438h-4.1562z"/>
  </symbol>
  <symbol id="u" overflow="visible">
   <path d="m1.3281-12.75h11.141v2.8438l-6.7344 6.9844h6.7344v2.9219h-11.422v-2.8438l6.7188-7h-6.4375z"/>
  </symbol>
  <symbol id="t" overflow="visible">
   <path d="m17.422-1.2656c-1.0938 0.53125-2.2305 0.93359-3.4062 1.2031-1.1797 0.25781-2.3906 0.39062-3.6406 0.39062-2.8359 0-5.0781-0.78906-6.7344-2.375-1.6562-1.582-2.4844-3.7266-2.4844-6.4375 0-2.7383 0.84375-4.8945 2.5312-6.4688 1.6875-1.5703 3.9922-2.3594 6.9219-2.3594 1.1328 0 2.2188 0.10938 3.25 0.32812 1.0391 0.21094 2.0195 0.52344 2.9375 0.9375v3.5156c-0.94922-0.53906-1.8906-0.94141-2.8281-1.2031-0.9375-0.26953-1.875-0.40625-2.8125-0.40625-1.75 0-3.1016 0.49219-4.0469 1.4688-0.9375 0.98047-1.4062 2.375-1.4062 4.1875 0 1.8047 0.45312 3.1953 1.3594 4.1719 0.90625 0.98047 2.2031 1.4688 3.8906 1.4688 0.44531 0 0.86328-0.023438 1.25-0.078125 0.39453-0.0625 0.75-0.15625 1.0625-0.28125v-3.2969h-2.6719v-2.9375h6.8281z"/>
  </symbol>
  <symbol id="g" overflow="visible">
   <path d="m1.9531-17.719h4.0781v17.719h-4.0781z"/>
  </symbol>
  <symbol id="s" overflow="visible">
   <path d="m10.359-17.719v2.6719h-2.2656c-0.57422 0-0.97656 0.10547-1.2031 0.3125-0.23047 0.21094-0.34375 0.57422-0.34375 1.0938v0.89062h3.4844v2.9062h-3.4844v9.8438h-4.0781v-9.8438h-2.0312v-2.9062h2.0312v-0.89062c0-1.3945 0.38281-2.4219 1.1562-3.0781 0.78125-0.66406 1.9844-1 3.6094-1z"/>
  </symbol>
  <symbol id="e" overflow="visible">
   <path d="m8.0312-10.156c-0.90625 0-1.6016 0.32812-2.0781 0.98438-0.46875 0.64844-0.70312 1.5781-0.70312 2.7969 0 1.2305 0.23438 2.1719 0.70312 2.8281 0.47656 0.64844 1.1719 0.96875 2.0781 0.96875 0.88281 0 1.5625-0.32031 2.0312-0.96875 0.47656-0.65625 0.71875-1.5977 0.71875-2.8281 0-1.2188-0.24219-2.1484-0.71875-2.7969-0.46875-0.65625-1.1484-0.98438-2.0312-0.98438zm0-2.9062c2.1953 0 3.9102 0.59375 5.1406 1.7812 1.2383 1.1797 1.8594 2.8125 1.8594 4.9062 0 2.1055-0.62109 3.75-1.8594 4.9375-1.2305 1.1797-2.9453 1.7656-5.1406 1.7656-2.1992 0-3.9219-0.58594-5.1719-1.7656-1.2422-1.1875-1.8594-2.832-1.8594-4.9375 0-2.0938 0.61719-3.7266 1.8594-4.9062 1.25-1.1875 2.9727-1.7812 5.1719-1.7812z"/>
  </symbol>
  <symbol id="r" overflow="visible">
   <path d="m13.781-10.641c0.51953-0.78906 1.1328-1.3906 1.8438-1.7969 0.70703-0.41406 1.4883-0.625 2.3438-0.625 1.457 0 2.5703 0.45312 3.3438 1.3594 0.76953 0.89844 1.1562 2.2109 1.1562 3.9375v7.7656h-4.1094v-6.6562c0.007813-0.09375 0.015625-0.19141 0.015625-0.29688 0.007812-0.11328 0.015625-0.26953 0.015625-0.46875 0-0.89453-0.13672-1.5469-0.40625-1.9531-0.26172-0.40625-0.6875-0.60938-1.2812-0.60938-0.78125 0-1.3867 0.32031-1.8125 0.95312-0.41797 0.63672-0.63281 1.5586-0.64062 2.7656v6.2656h-4.0938v-6.6562c0-1.4062-0.125-2.3125-0.375-2.7188-0.24219-0.40625-0.67188-0.60938-1.2969-0.60938-0.78125 0-1.3867 0.32422-1.8125 0.96875-0.42969 0.63672-0.64062 1.5469-0.64062 2.7344v6.2812h-4.0938v-12.75h4.0938v1.8594c0.5-0.71875 1.0703-1.2578 1.7188-1.625 0.65625-0.36328 1.375-0.54688 2.1562-0.54688 0.88281 0 1.6641 0.21484 2.3438 0.64062 0.67578 0.41797 1.1875 1.0117 1.5312 1.7812z"/>
  </symbol>
  <symbol id="q" overflow="visible">
   <path d="m14.781-7.7656v7.7656h-4.0938v-5.9219c0-1.1133-0.027344-1.8789-0.078125-2.2969-0.054687-0.41406-0.13672-0.72266-0.25-0.92188-0.16797-0.26953-0.38672-0.47656-0.65625-0.625-0.27344-0.14453-0.58594-0.21875-0.9375-0.21875-0.84375 0-1.5117 0.32812-2 0.98438-0.49219 0.65625-0.73438 1.5625-0.73438 2.7188v6.2812h-4.0781v-17.719h4.0781v6.8281c0.61328-0.73828 1.2656-1.2852 1.9531-1.6406 0.69531-0.35156 1.4609-0.53125 2.2969-0.53125 1.4766 0 2.5977 0.45312 3.3594 1.3594 0.75781 0.89844 1.1406 2.2109 1.1406 3.9375z"/>
  </symbol>
  <symbol id="p" overflow="visible">
   <path d="m2.1406-17h4.9062l6.1719 11.656v-11.656h4.1562v17h-4.8906l-6.1875-11.672v11.672h-4.1562z"/>
  </symbol>
  <symbol id="o" overflow="visible">
   <path d="m1.8281-4.9688v-7.7812h4.0938v1.2656c0 0.69922-0.007813 1.5703-0.015625 2.6094v2.0938c0 1.0234 0.023438 1.7617 0.078125 2.2188 0.050781 0.44922 0.14062 0.77344 0.26562 0.96875 0.16406 0.27344 0.38281 0.48047 0.65625 0.625 0.26953 0.14844 0.58203 0.21875 0.9375 0.21875 0.84375 0 1.5078-0.32812 2-0.98438 0.48828-0.65625 0.73438-1.5625 0.73438-2.7188v-6.2969h4.0625v12.75h-4.0625v-1.8438c-0.625 0.74219-1.2812 1.2891-1.9688 1.6406-0.67969 0.35156-1.4336 0.53125-2.2656 0.53125-1.4688 0-2.5898-0.44531-3.3594-1.3438-0.77344-0.90625-1.1562-2.2227-1.1562-3.9531z"/>
  </symbol>
  <symbol id="n" overflow="visible">
   <path d="m14.781-7.7656v7.7656h-4.0938v-5.9531c0-1.0938-0.027344-1.8477-0.078125-2.2656-0.054687-0.41406-0.13672-0.72266-0.25-0.92188-0.16797-0.26953-0.38672-0.47656-0.65625-0.625-0.27344-0.14453-0.58594-0.21875-0.9375-0.21875-0.84375 0-1.5117 0.32812-2 0.98438-0.49219 0.65625-0.73438 1.5625-0.73438 2.7188v6.2812h-4.0781v-12.75h4.0781v1.8594c0.61328-0.73828 1.2656-1.2852 1.9531-1.6406 0.69531-0.35156 1.4609-0.53125 2.2969-0.53125 1.4766 0 2.5977 0.45312 3.3594 1.3594 0.75781 0.89844 1.1406 2.2109 1.1406 3.9375z"/>
  </symbol>
  <symbol id="m" overflow="visible">
   <path d="m2.1406-17h7.2812c2.1641 0 3.8281 0.48047 4.9844 1.4375 1.1562 0.96094 1.7344 2.3281 1.7344 4.1094s-0.57812 3.1523-1.7344 4.1094c-1.1562 0.96094-2.8203 1.4375-4.9844 1.4375h-2.8906v5.9062h-4.3906zm4.3906 3.1719v4.75h2.4219c0.85156 0 1.5078-0.20312 1.9688-0.60938 0.46875-0.41406 0.70312-1.0039 0.70312-1.7656 0-0.75781-0.23438-1.3438-0.70312-1.75-0.46094-0.41406-1.1172-0.625-1.9688-0.625z"/>
  </symbol>
  <symbol id="l" overflow="visible">
   <path d="m1.9531-12.75h4.0781v12.516c0 1.707-0.41406 3.0078-1.2344 3.9062-0.8125 0.90625-2 1.3594-3.5625 1.3594h-2.0156v-2.6719h0.71875c0.76953 0 1.2969-0.17969 1.5781-0.53125 0.28906-0.34375 0.4375-1.0312 0.4375-2.0625zm0-4.9688h4.0781v3.3281h-4.0781z"/>
  </symbol>
  <symbol id="k" overflow="visible">
   <path d="m12.266-12.359v3.3281c-0.55469-0.38281-1.1094-0.66406-1.6719-0.84375-0.55469-0.1875-1.1328-0.28125-1.7344-0.28125-1.1367 0-2.0234 0.33594-2.6562 1-0.63672 0.66797-0.95312 1.5938-0.95312 2.7812 0 1.1992 0.31641 2.1328 0.95312 2.7969 0.63281 0.66797 1.5195 1 2.6562 1 0.63281 0 1.2383-0.09375 1.8125-0.28125 0.57031-0.19531 1.1016-0.48438 1.5938-0.85938v3.3438c-0.63672 0.24219-1.2812 0.41406-1.9375 0.53125-0.65625 0.11328-1.3203 0.17188-1.9844 0.17188-2.3047 0-4.1055-0.58594-5.4062-1.7656-1.293-1.1875-1.9375-2.832-1.9375-4.9375 0-2.0938 0.64453-3.7266 1.9375-4.9062 1.3008-1.1875 3.1016-1.7812 5.4062-1.7812 0.67578 0 1.3359 0.058594 1.9844 0.17188 0.64453 0.11719 1.2891 0.29297 1.9375 0.53125z"/>
  </symbol>
 </defs>
 <g>
  <path d="m338.03 226.96c3.6836-4.2148 7.5742-8.3359 13.441-11.332 5.5859-2.8477 14.309-5.3281 28.312-3.457l-0.003906 0.003906c4.9062 0.64844 9.8672-0.67188 13.793-3.6797 3.9258-3.0078 6.5-7.4531 7.1484-12.355 0.65625-4.9062-0.66016-9.8711-3.6641-13.801-3.0039-3.9336-7.4453-6.5117-12.348-7.1719-20.934-2.7969-37.352 0.66406-50.16 7.1992-12.52 6.3945-20.277 15.102-24.57 20.012-3.2578 3.7266-4.8984 8.5938-4.5703 13.531s2.6016 9.543 6.3242 12.809c3.7188 3.2578 8.5781 4.9062 13.512 4.5781 4.9375-0.33203 9.5352-2.6094 12.789-6.3359zm-72.941 80.738c1.3164 4.7695 0.69141 9.8672-1.7461 14.172-2.4375 4.3047-6.4844 7.4648-11.25 8.7891-7.0156 1.9414-11.676 4.4414-15.094 7.6523-3.3555 3.1406-6.7031 8.0859-9.2461 16.879h0.003906c-1.3711 4.7539-4.5742 8.7656-8.9023 11.156-4.332 2.3906-9.4336 2.9609-14.184 1.5859-4.7539-1.3828-8.7617-4.5898-11.148-8.9258-2.3828-4.3359-2.9492-9.4414-1.5742-14.191 4.0117-13.879 10.383-25.133 19.566-33.75 9.1172-8.5586 19.82-13.395 30.645-16.391h0.003906c4.7656-1.3164 9.8594-0.68359 14.16 1.7578 4.3008 2.4414 7.4531 6.4922 8.7656 11.262z"/>
  <path d="m181.9 443.33c-38.598 0-70.887-31.641-63.68-69.621 10.586-55.812 36.727-110.31 93.348-128.95 29.219-71.285 81.207-128.09 170.68-128.09 140.71 0 188.7 140.5 201.25 256.83 4.1484 38.434-27.535 69.836-66.137 69.836zm209.28-37.332h126.19c19.258 0 30.551-14.863 29.078-28.496-6.0078-55.645-20.234-113.41-47.074-156.19-25.703-40.98-61.973-67.316-117.12-67.316s-91.422 26.336-117.12 67.316c-3.3906 5.4219-6.5508 10.988-9.4688 16.684 88.434 0 125.97 66.855 139.02 135.71 2.1992 11.594 0.71875 22.598-3.5 32.289zm-38.203-8.9375c-4.8438 5.1094-12.738 8.9375-21.98 8.9375h-149.1c-9.2383 0-17.137-3.8203-21.98-8.9375-4.5234-4.7656-6.2422-10.266-5.0859-16.383 5.8789-30.988 16.492-57.773 32.426-76.215 14.758-17.082 35.742-29.133 69.195-29.133 33.449 0 54.438 12.051 69.188 29.129 15.938 18.449 26.547 45.23 32.426 76.215 1.1602 6.1211-0.55859 11.621-5.082 16.379z" fill-rule="evenodd"/>
  <use x="70" y="630" xlink:href="#v"/>
  <use x="87.125" y="630" xlink:href="#b"/>
  <use x="98.632812" y="630" xlink:href="#a"/>
  <use x="114.457031" y="630" xlink:href="#d"/>
  <use x="130.203125" y="630" xlink:href="#c"/>
  <use x="141.355469" y="630" xlink:href="#a"/>
  <use x="157.179688" y="630" xlink:href="#j"/>
  <use x="182.007812" y="630" xlink:href="#i"/>
  <use x="198.710937" y="630" xlink:href="#f"/>
  <use x="222.042969" y="630" xlink:href="#h"/>
  <use x="245.261719" y="630" xlink:href="#d"/>
  <use x="261.007812" y="630" xlink:href="#b"/>
  <use x="272.515625" y="630" xlink:href="#u"/>
  <use x="294.21875" y="630" xlink:href="#t"/>
  <use x="313.371094" y="630" xlink:href="#d"/>
  <use x="329.117187" y="630" xlink:href="#g"/>
  <use x="337.113281" y="630" xlink:href="#g"/>
  <use x="345.113281" y="630" xlink:href="#a"/>
  <use x="360.9375" y="630" xlink:href="#b"/>
  <use x="372.445312" y="630" xlink:href="#f"/>
  <use x="70" y="653.332031" xlink:href="#s"/>
  <use x="80.152344" y="653.332031" xlink:href="#b"/>
  <use x="91.660156" y="653.332031" xlink:href="#e"/>
  <use x="107.6875" y="653.332031" xlink:href="#r"/>
  <use x="140.125" y="653.332031" xlink:href="#c"/>
  <use x="151.28125" y="653.332031" xlink:href="#q"/>
  <use x="167.890625" y="653.332031" xlink:href="#a"/>
  <use x="191.839844" y="653.332031" xlink:href="#p"/>
  <use x="211.367188" y="653.332031" xlink:href="#e"/>
  <use x="227.398438" y="653.332031" xlink:href="#o"/>
  <use x="244.007812" y="653.332031" xlink:href="#n"/>
  <use x="268.742188" y="653.332031" xlink:href="#m"/>
  <use x="285.84375" y="653.332031" xlink:href="#b"/>
  <use x="297.351562" y="653.332031" xlink:href="#e"/>
  <use x="313.382812" y="653.332031" xlink:href="#l"/>
  <use x="321.378906" y="653.332031" xlink:href="#a"/>
  <use x="337.207031" y="653.332031" xlink:href="#k"/>
  <use x="351.035156" y="653.332031" xlink:href="#c"/>
 </g>
</svg>
