<?xml version="1.0" encoding="UTF-8"?>
<svg width="700pt" height="700pt" version="1.1" viewBox="0 0 700 700" xmlns="http://www.w3.org/2000/svg">
 <path d="m474.45 0h-248.89c-20.629 0-40.41 8.1953-54.996 22.781-14.586 14.586-22.781 34.367-22.781 54.996v404.45c0 20.629 8.1953 40.41 22.781 54.996 14.586 14.586 34.367 22.781 54.996 22.781h140c4.1211-0.058594 8.0625-1.668 11.047-4.5117l171.11-171.11c2.7109-3.0664 4.3047-6.9609 4.5117-11.047v-295.55c0-20.629-8.1953-40.41-22.781-54.996-14.586-14.586-34.367-22.781-54.996-22.781zm-295.55 482.22v-404.45c0-12.375 4.9141-24.246 13.668-32.996 8.75-8.7539 20.621-13.672 32.996-13.672h248.89c12.375 0 24.246 4.918 32.996 13.672 8.7539 8.75 13.668 20.621 13.668 32.996v280h-124.44c-12.379 0-24.246 4.918-33 13.668-8.75 8.7539-13.668 20.621-13.668 33v124.45h-124.45c-12.375 0-24.246-4.918-32.996-13.672-8.7539-8.75-13.668-20.621-13.668-32.996zm202.22 24.734-0.003906-102.51c0-4.125 1.6406-8.082 4.5586-11 2.918-2.918 6.875-4.5547 11-4.5547h102.51z"/>
</svg>
